<?xml version="1.0" encoding="iso-8859-1"?>
<!-- Generator: Adobe Illustrator 19.0.0, SVG Export Plug-In . SVG Version: 6.00 Build 0)  -->
<svg version="1.1" id="Layer_1" xmlns="http://www.w3.org/2000/svg" xmlns:xlink="http://www.w3.org/1999/xlink" x="0px" y="0px"
	 viewBox="0 0 495 495" style="enable-background:new 0 0 495 495;" xml:space="preserve">
<g>
	<path style="fill:#004FAC;" d="M422.55,72.45C375.83,25.73,313.66,0,247.5,0v88.75c42.43,0,82.31,16.5,112.28,46.47
		c29.97,29.97,46.47,69.85,46.47,112.28s-16.5,82.31-46.47,112.28c-29.97,29.97-69.85,46.47-112.28,46.47V495
		c66.16,0,128.33-25.73,175.05-72.45C469.27,375.83,495,313.66,495,247.5S469.27,119.17,422.55,72.45z"/>
	<path style="fill:#D8D7DA;" d="M317.5,247.5c0,38.6-31.4,70-70,70v88.75c42.43,0,82.31-16.5,112.28-46.47
		c29.97-29.97,46.47-69.85,46.47-112.28s-16.5-82.31-46.47-112.28c-29.97-29.97-69.85-46.47-112.28-46.47v88.75
		C286.1,177.5,317.5,208.9,317.5,247.5z"/>
	<path style="fill:#CD2A00;" d="M317.5,247.5c0-38.6-31.4-70-70-70v140C286.1,317.5,317.5,286.1,317.5,247.5z"/>
	<path style="fill:#006DF0;" d="M135.22,359.78c-29.97-29.97-46.47-69.85-46.47-112.28s16.5-82.31,46.47-112.28
		c29.97-29.97,69.85-46.47,112.28-46.47V0C181.34,0,119.17,25.73,72.45,72.45C25.73,119.17,0,181.34,0,247.5
		s25.73,128.33,72.45,175.05C119.17,469.27,181.34,495,247.5,495v-88.75C205.07,406.25,165.19,389.75,135.22,359.78z"/>
	<path style="fill:#FFFFFF;" d="M88.75,247.5c0,42.43,16.5,82.31,46.47,112.28c29.97,29.97,69.85,46.47,112.28,46.47V317.5
		c-38.6,0-70-31.4-70-70c0-38.6,31.4-70,70-70V88.75c-42.43,0-82.31,16.5-112.28,46.47C105.25,165.19,88.75,205.07,88.75,247.5z"/>
	<path style="fill:#FF3501;" d="M177.5,247.5c0,38.6,31.4,70,70,70v-140C208.9,177.5,177.5,208.9,177.5,247.5z"/>
</g>
<g>
</g>
<g>
</g>
<g>
</g>
<g>
</g>
<g>
</g>
<g>
</g>
<g>
</g>
<g>
</g>
<g>
</g>
<g>
</g>
<g>
</g>
<g>
</g>
<g>
</g>
<g>
</g>
<g>
</g>
</svg>
