<?xml version="1.0" encoding="iso-8859-1"?>
<!-- Generator: Adobe Illustrator 19.0.0, SVG Export Plug-In . SVG Version: 6.00 Build 0)  -->
<svg version="1.1" id="Layer_1" xmlns="http://www.w3.org/2000/svg" xmlns:xlink="http://www.w3.org/1999/xlink" x="0px" y="0px"
	 viewBox="0 0 512 512" style="enable-background:new 0 0 512 512;" xml:space="preserve">
<path style="fill:#E54728;" d="M398.34,71.921L398.34,71.921c-78.611-78.611-206.066-78.611-284.677,0l0,0
	c-78.611,78.611-78.611,206.066,0,284.677l142.338,142.338L398.34,356.598C476.951,277.987,476.951,150.533,398.34,71.921z"/>
<path style="fill:#F95428;" d="M136.754,333.505c-31.852-31.852-49.394-74.201-49.394-119.247s17.541-87.394,49.394-119.245
	c31.852-31.852,74.201-49.394,119.247-49.394c45.044,0,87.394,17.541,119.245,49.393s49.394,74.201,49.394,119.245
	c0,45.046-17.541,87.395-49.394,119.245L256,452.749L136.754,333.505z"/>
<path style="fill:#333333;" d="M256,512c-3.464,0-6.788-1.376-9.237-3.826L104.424,365.835
	c-40.487-40.487-62.785-94.317-62.785-151.575s22.297-111.089,62.785-151.575c83.578-83.579,219.572-83.579,303.151,0l0,0
	c40.488,40.487,62.785,94.317,62.785,151.575s-22.297,111.089-62.785,151.575L265.238,508.173C262.787,510.624,259.465,512,256,512z
	 M256,26.114c-48.203,0-96.405,18.348-133.101,55.044c-35.551,35.553-55.132,82.823-55.132,133.101
	c0,50.28,19.58,97.549,55.133,133.102l133.101,133.101l133.102-133.101c35.553-35.553,55.133-82.823,55.133-133.101
	s-19.58-97.549-55.133-133.101l0,0C352.406,44.461,304.203,26.114,256,26.114z"/>
<polygon style="fill:#CCCCCC;" points="256.001,105.461 291.61,177.611 371.232,189.181 313.616,245.343 327.217,324.644
	256.001,287.204 184.784,324.644 198.385,245.343 140.769,189.181 220.392,177.611 "/>
<path style="fill:#E6E6E6;" d="M227.193,233.29l-16.68-16.26c-3.266-3.183-1.464-8.73,3.05-9.386l23.051-3.349
	c1.792-0.26,3.342-1.386,4.144-3.01l10.309-20.889c2.018-4.09,7.851-4.09,9.869,0l10.309,20.889c0.802,1.624,2.351,2.75,4.144,3.01
	l23.051,3.349c4.513,0.656,6.316,6.202,3.05,9.386l-16.68,16.26c-1.297,1.265-1.889,3.086-1.583,4.871l3.937,22.958
	c0.771,4.495-3.948,7.924-7.984,5.801l-20.618-10.84c-1.603-0.843-3.518-0.843-5.122,0l-20.619,10.84
	c-4.036,2.123-8.755-1.306-7.984-5.801l3.939-22.958C229.082,236.377,228.49,234.555,227.193,233.29z"/>
<path style="fill:#333333;" d="M184.785,337.708c-2.709,0-5.404-0.841-7.68-2.495c-4.023-2.922-6.038-7.876-5.197-12.777
	l12.44-72.533l-52.698-51.368c-3.561-3.471-4.843-8.662-3.306-13.391c1.536-4.729,5.625-8.176,10.546-8.891l72.827-10.582
	l32.57-65.992c2.201-4.458,6.742-7.281,11.714-7.281c4.973,0,9.514,2.823,11.714,7.281l32.569,65.992l72.827,10.582
	c4.921,0.715,9.008,4.162,10.546,8.891c1.538,4.729,0.255,9.92-3.306,13.391l-52.698,51.368l12.44,72.533
	c0.841,4.901-1.173,9.854-5.197,12.777c-4.023,2.924-9.358,3.308-13.757,0.994l-65.138-34.245l-65.139,34.245
	C188.951,337.212,186.863,337.708,184.785,337.708z M168.841,198.303l38.662,37.686c3.079,3.001,4.485,7.324,3.757,11.562
	l-9.127,53.214l47.789-25.124c3.807-2,8.353-2,12.158,0l47.789,25.124l-9.127-53.214c-0.728-4.238,0.678-8.562,3.757-11.562
	l38.662-37.686l-53.43-7.763c-4.255-0.618-7.933-3.291-9.835-7.146L256,134.978l-23.894,48.415
	c-1.903,3.855-5.581,6.528-9.835,7.146L168.841,198.303z"/>
<g>
</g>
<g>
</g>
<g>
</g>
<g>
</g>
<g>
</g>
<g>
</g>
<g>
</g>
<g>
</g>
<g>
</g>
<g>
</g>
<g>
</g>
<g>
</g>
<g>
</g>
<g>
</g>
<g>
</g>
</svg>
